<svg width="360" height="521" viewBox="0 0 360 521" fill="none" xmlns="http://www.w3.org/2000/svg">
<path d="M111.36 507L106.104 497.46H104.628V507H98.4722V481.728H108.804C110.796 481.728 112.488 482.076 113.88 482.772C115.296 483.468 116.352 484.428 117.048 485.652C117.744 486.852 118.092 488.196 118.092 489.684C118.092 491.364 117.612 492.864 116.652 494.184C115.716 495.504 114.324 496.44 112.476 496.992L118.308 507H111.36ZM104.628 493.104H108.444C109.572 493.104 110.412 492.828 110.964 492.276C111.54 491.724 111.828 490.944 111.828 489.936C111.828 488.976 111.54 488.22 110.964 487.668C110.412 487.116 109.572 486.84 108.444 486.84H104.628V493.104ZM140.893 496.632C140.893 497.208 140.857 497.808 140.785 498.432H126.853C126.949 499.68 127.345 500.64 128.041 501.312C128.761 501.96 129.637 502.284 130.669 502.284C132.205 502.284 133.273 501.636 133.873 500.34H140.425C140.089 501.66 139.477 502.848 138.589 503.904C137.725 504.96 136.633 505.788 135.313 506.388C133.993 506.988 132.517 507.288 130.885 507.288C128.917 507.288 127.165 506.868 125.629 506.028C124.093 505.188 122.893 503.988 122.029 502.428C121.165 500.868 120.733 499.044 120.733 496.956C120.733 494.868 121.153 493.044 121.993 491.484C122.857 489.924 124.057 488.724 125.593 487.884C127.129 487.044 128.893 486.624 130.885 486.624C132.829 486.624 134.557 487.032 136.069 487.848C137.581 488.664 138.757 489.828 139.597 491.34C140.461 492.852 140.893 494.616 140.893 496.632ZM134.593 495.012C134.593 493.956 134.233 493.116 133.513 492.492C132.793 491.868 131.893 491.556 130.813 491.556C129.781 491.556 128.905 491.856 128.185 492.456C127.489 493.056 127.057 493.908 126.889 495.012H134.593ZM142.916 496.956C142.916 494.868 143.336 493.044 144.176 491.484C145.04 489.924 146.228 488.724 147.74 487.884C149.276 487.044 151.028 486.624 152.996 486.624C155.516 486.624 157.616 487.284 159.296 488.604C161 489.924 162.116 491.784 162.644 494.184H156.092C155.54 492.648 154.472 491.88 152.888 491.88C151.76 491.88 150.86 492.324 150.188 493.212C149.516 494.076 149.18 495.324 149.18 496.956C149.18 498.588 149.516 499.848 150.188 500.736C150.86 501.6 151.76 502.032 152.888 502.032C154.472 502.032 155.54 501.264 156.092 499.728H162.644C162.116 502.08 161 503.928 159.296 505.272C157.592 506.616 155.492 507.288 152.996 507.288C151.028 507.288 149.276 506.868 147.74 506.028C146.228 505.188 145.04 503.988 144.176 502.428C143.336 500.868 142.916 499.044 142.916 496.956ZM184.873 496.632C184.873 497.208 184.837 497.808 184.765 498.432H170.833C170.929 499.68 171.325 500.64 172.021 501.312C172.741 501.96 173.617 502.284 174.649 502.284C176.185 502.284 177.253 501.636 177.853 500.34H184.405C184.069 501.66 183.457 502.848 182.569 503.904C181.705 504.96 180.613 505.788 179.293 506.388C177.973 506.988 176.497 507.288 174.865 507.288C172.897 507.288 171.145 506.868 169.609 506.028C168.073 505.188 166.873 503.988 166.009 502.428C165.145 500.868 164.713 499.044 164.713 496.956C164.713 494.868 165.133 493.044 165.973 491.484C166.837 489.924 168.037 488.724 169.573 487.884C171.109 487.044 172.873 486.624 174.865 486.624C176.809 486.624 178.537 487.032 180.049 487.848C181.561 488.664 182.737 489.828 183.577 491.34C184.441 492.852 184.873 494.616 184.873 496.632ZM178.573 495.012C178.573 493.956 178.213 493.116 177.493 492.492C176.773 491.868 175.873 491.556 174.793 491.556C173.761 491.556 172.885 491.856 172.165 492.456C171.469 493.056 171.037 493.908 170.869 495.012H178.573ZM200.361 486.696C202.713 486.696 204.585 487.464 205.977 489C207.393 490.512 208.101 492.6 208.101 495.264V507H201.981V496.092C201.981 494.748 201.633 493.704 200.937 492.96C200.241 492.216 199.305 491.844 198.129 491.844C196.953 491.844 196.017 492.216 195.321 492.96C194.625 493.704 194.277 494.748 194.277 496.092V507H188.121V486.912H194.277V489.576C194.901 488.688 195.741 487.992 196.797 487.488C197.853 486.96 199.041 486.696 200.361 486.696ZM220.55 507.288C218.798 507.288 217.238 506.988 215.87 506.388C214.502 505.788 213.422 504.972 212.63 503.94C211.838 502.884 211.394 501.708 211.298 500.412H217.382C217.454 501.108 217.778 501.672 218.354 502.104C218.93 502.536 219.638 502.752 220.478 502.752C221.246 502.752 221.834 502.608 222.242 502.32C222.674 502.008 222.89 501.612 222.89 501.132C222.89 500.556 222.59 500.136 221.99 499.872C221.39 499.584 220.418 499.272 219.074 498.936C217.634 498.6 216.434 498.252 215.474 497.892C214.514 497.508 213.686 496.92 212.99 496.128C212.294 495.312 211.946 494.22 211.946 492.852C211.946 491.7 212.258 490.656 212.882 489.72C213.53 488.76 214.466 488.004 215.69 487.452C216.938 486.9 218.414 486.624 220.118 486.624C222.638 486.624 224.618 487.248 226.058 488.496C227.522 489.744 228.362 491.4 228.578 493.464H222.89C222.794 492.768 222.482 492.216 221.954 491.808C221.45 491.4 220.778 491.196 219.938 491.196C219.218 491.196 218.666 491.34 218.282 491.628C217.898 491.892 217.706 492.264 217.706 492.744C217.706 493.32 218.006 493.752 218.606 494.04C219.23 494.328 220.19 494.616 221.486 494.904C222.974 495.288 224.186 495.672 225.122 496.056C226.058 496.416 226.874 497.016 227.57 497.856C228.29 498.672 228.662 499.776 228.686 501.168C228.686 502.344 228.35 503.4 227.678 504.336C227.03 505.248 226.082 505.968 224.834 506.496C223.61 507.024 222.182 507.288 220.55 507.288ZM235.549 484.824C234.469 484.824 233.581 484.512 232.885 483.888C232.213 483.24 231.877 482.448 231.877 481.512C231.877 480.552 232.213 479.76 232.885 479.136C233.581 478.488 234.469 478.164 235.549 478.164C236.605 478.164 237.469 478.488 238.141 479.136C238.837 479.76 239.185 480.552 239.185 481.512C239.185 482.448 238.837 483.24 238.141 483.888C237.469 484.512 236.605 484.824 235.549 484.824ZM238.609 486.912V507H232.453V486.912H238.609ZM252.214 507.288C250.246 507.288 248.47 506.868 246.886 506.028C245.326 505.188 244.09 503.988 243.178 502.428C242.29 500.868 241.846 499.044 241.846 496.956C241.846 494.892 242.302 493.08 243.214 491.52C244.126 489.936 245.374 488.724 246.958 487.884C248.542 487.044 250.318 486.624 252.286 486.624C254.254 486.624 256.03 487.044 257.614 487.884C259.198 488.724 260.446 489.936 261.358 491.52C262.27 493.08 262.726 494.892 262.726 496.956C262.726 499.02 262.258 500.844 261.322 502.428C260.41 503.988 259.15 505.188 257.542 506.028C255.958 506.868 254.182 507.288 252.214 507.288ZM252.214 501.96C253.39 501.96 254.386 501.528 255.202 500.664C256.042 499.8 256.462 498.564 256.462 496.956C256.462 495.348 256.054 494.112 255.238 493.248C254.446 492.384 253.462 491.952 252.286 491.952C251.086 491.952 250.09 492.384 249.298 493.248C248.506 494.088 248.11 495.324 248.11 496.956C248.11 498.564 248.494 499.8 249.262 500.664C250.054 501.528 251.038 501.96 252.214 501.96Z" fill="#F2F2F2"/>
<path d="M192.01 141L173.322 107.08H168.074V141H146.186V51.144H182.922C190.005 51.144 196.021 52.3813 200.97 54.856C206.005 57.3307 209.759 60.744 212.234 65.096C214.709 69.3627 215.946 74.1413 215.946 79.432C215.946 85.4053 214.239 90.7387 210.826 95.432C207.498 100.125 202.549 103.453 195.978 105.416L216.714 141H192.01ZM168.074 91.592H181.642C185.653 91.592 188.639 90.6107 190.602 88.648C192.65 86.6853 193.674 83.912 193.674 80.328C193.674 76.9147 192.65 74.2267 190.602 72.264C188.639 70.3013 185.653 69.32 181.642 69.32H168.074V91.592Z" fill="#F2F2F2"/>
</svg>
