<svg width="24" height="24" viewBox="0 0 24 24" fill="none" xmlns="http://www.w3.org/2000/svg">
<path d="M10.5899 17L14.8299 12.71C14.9237 12.617 14.9981 12.5064 15.0488 12.3846C15.0996 12.2627 15.1257 12.132 15.1257 12C15.1257 11.868 15.0996 11.7373 15.0488 11.6154C14.9981 11.4936 14.9237 11.383 14.8299 11.29L10.5899 7.05001C10.497 6.95628 10.3864 6.88189 10.2645 6.83112C10.1427 6.78035 10.0119 6.75421 9.87993 6.75421C9.74792 6.75421 9.61722 6.78035 9.49536 6.83112C9.3735 6.88189 9.2629 6.95628 9.16993 7.05001C8.98368 7.23737 8.87914 7.49082 8.87914 7.75501C8.87914 8.0192 8.98368 8.27265 9.16993 8.46001L12.7099 12L9.16993 15.54C8.98519 15.7263 8.88104 15.9777 8.87993 16.24C8.87917 16.3716 8.9044 16.5021 8.95416 16.6239C9.00393 16.7458 9.07725 16.8566 9.16993 16.95C9.25955 17.0471 9.36752 17.1254 9.48759 17.1805C9.60767 17.2357 9.73747 17.2664 9.86951 17.2711C10.0015 17.2757 10.1332 17.2542 10.2568 17.2076C10.3805 17.1611 10.4937 17.0905 10.5899 17Z" fill="white"/>
</svg>
