<svg width="20" height="20" viewBox="0 0 20 20" fill="none" xmlns="http://www.w3.org/2000/svg">
<path d="M16 5L16 4L19 4C19.2652 4 19.5196 3.89464 19.7071 3.70711C19.8946 3.51957 20 3.26522 20 3C20 2.73478 19.8946 2.48043 19.7071 2.29289C19.5196 2.10536 19.2652 2 19 2L16 2L16 1C16 0.734783 15.8946 0.480429 15.7071 0.292893C15.5196 0.105357 15.2652 -2.06964e-07 15 -2.18557e-07C14.7348 -2.3015e-07 14.4804 0.105357 14.2929 0.292893C14.1054 0.480429 14 0.734783 14 1L14 5C14 5.26522 14.1054 5.51957 14.2929 5.70711C14.4804 5.89464 14.7348 6 15 6C15.2652 6 15.5196 5.89464 15.7071 5.70711C15.8946 5.51957 16 5.26522 16 5ZM12 3C12 2.73478 11.8946 2.48043 11.7071 2.29289C11.5196 2.10536 11.2652 2 11 2L1 2C0.734783 2 0.480429 2.10536 0.292892 2.29289C0.105356 2.48043 -1.19541e-07 2.73478 -1.31134e-07 3C-1.42727e-07 3.26522 0.105356 3.51957 0.292892 3.70711C0.480429 3.89464 0.734783 4 1 4L11 4C11.2652 4 11.5196 3.89464 11.7071 3.70711C11.8946 3.51957 12 3.26522 12 3ZM4 10C4 9.73478 3.89464 9.48043 3.70711 9.29289C3.51957 9.10536 3.26522 9 3 9L1 9C0.734783 9 0.480428 9.10536 0.292892 9.29289C0.105356 9.48043 -4.25521e-07 9.73478 -4.37114e-07 10C-4.48707e-07 10.2652 0.105356 10.5196 0.292892 10.7071C0.480428 10.8946 0.734783 11 1 11L3 11C3.26522 11 3.51957 10.8946 3.70711 10.7071C3.89464 10.5196 4 10.2652 4 10ZM12 19L12 18L19 18C19.2652 18 19.5196 17.8946 19.7071 17.7071C19.8946 17.5196 20 17.2652 20 17C20 16.7348 19.8946 16.4804 19.7071 16.2929C19.5196 16.1054 19.2652 16 19 16L12 16L12 15C12 14.7348 11.8946 14.4804 11.7071 14.2929C11.5196 14.1054 11.2652 14 11 14C10.7348 14 10.4804 14.1054 10.2929 14.2929C10.1054 14.4804 10 14.7348 10 15L10 19C10 19.2652 10.1054 19.5196 10.2929 19.7071C10.4804 19.8946 10.7348 20 11 20C11.2652 20 11.5196 19.8946 11.7071 19.7071C11.8946 19.5196 12 19.2652 12 19ZM8 17C8 16.7348 7.89464 16.4804 7.70711 16.2929C7.51957 16.1054 7.26522 16 7 16L0.999999 16C0.734782 16 0.480428 16.1054 0.292892 16.2929C0.105355 16.4804 -7.31501e-07 16.7348 -7.43094e-07 17C-7.54687e-07 17.2652 0.105355 17.5196 0.292892 17.7071C0.480428 17.8946 0.734782 18 0.999999 18L7 18C7.26522 18 7.51957 17.8946 7.70711 17.7071C7.89464 17.5196 8 17.2652 8 17ZM8 12L8 11L19 11C19.2652 11 19.5196 10.8946 19.7071 10.7071C19.8946 10.5196 20 10.2652 20 10C20 9.73478 19.8946 9.48043 19.7071 9.29289C19.5196 9.10536 19.2652 9 19 9L8 9L8 8C8 7.73478 7.89464 7.48043 7.70711 7.29289C7.51957 7.10536 7.26522 7 7 7C6.73478 7 6.48043 7.10536 6.29289 7.29289C6.10536 7.48043 6 7.73478 6 8L6 12C6 12.2652 6.10536 12.5196 6.29289 12.7071C6.48043 12.8946 6.73478 13 7 13C7.26522 13 7.51957 12.8946 7.70711 12.7071C7.89464 12.5196 8 12.2652 8 12Z" fill="white"/>
</svg>
