<svg width="359" height="239" viewBox="0 0 359 239" fill="none" xmlns="http://www.w3.org/2000/svg">
<path opacity="0.18" d="M18.8345 90.5528C27.8794 79.1598 39.7162 70.0223 47.5203 57.7607C51.6018 51.3485 54.5266 44.1653 59.2153 38.2008C67.1036 28.2125 79.5651 22.4828 92.1949 20.985C104.825 19.4872 117.673 21.9023 129.753 25.9215C133.963 27.3218 138.173 28.9348 142.578 29.4222C150.728 30.3085 158.762 27.344 166.349 24.2287C198.735 10.9082 233.129 -6.29873 267.07 2.32021C291.839 8.60827 311.054 27.5788 328.975 45.8093C339.811 56.8212 350.983 68.3734 355.871 83.0328C360.263 96.1978 359.106 110.481 357.905 124.306L352.88 182.126C352.838 183.457 352.57 184.772 352.086 186.013C350.881 188.622 347.974 189.943 345.253 190.887C329.804 196.151 313.075 195.721 296.758 195.234L49.6918 187.834C39.1534 187.519 15.4665 190.275 6.42603 184.005C6.42603 184.005 2.09192 166.723 0.979593 159.229C-2.59671 135.225 3.67844 109.643 18.8345 90.5528Z" fill="#2F3643"/>
<path opacity="0.59" d="M355.752 182.68C355.752 197.596 349.826 211.9 339.278 222.446C328.731 232.993 314.426 238.918 299.51 238.918H62.663C47.7477 238.917 33.4436 232.991 22.8972 222.444C12.3508 211.898 6.42601 197.594 6.42601 182.68H355.752Z" fill="#435A68"/>
<path d="M355.516 182.68C355.073 185.361 352.064 188.228 349.277 189.69C341.215 193.909 332.905 197.637 324.394 200.853C317.014 203.636 309.357 206.06 301.473 206.224C295.455 206.352 289.508 205.16 283.556 204.19C222.028 194.171 158.811 208.067 96.8442 201.243C94.8717 201.026 91.925 201.899 92.6031 203.764C92.1333 202.466 71.1895 203.157 68.8095 203.091C61.8033 202.891 54.5886 203.166 47.6266 202.249C37.4915 200.92 26.8203 189.779 19.9557 182.826C19.9557 182.826 34.4647 183.234 41.1786 182.68H355.516Z" fill="url(#paint0_linear_2_11)"/>
<path d="M313.576 111.389C312.433 109.51 311.293 107.063 312.556 105.269C313.513 103.908 315.504 103.567 316.403 102.167C311.825 101.724 309.312 96.6413 308.342 92.148C306.923 85.4724 306.868 78.5794 308.179 71.8822C309.49 65.185 312.142 58.8213 315.973 53.1743C316.372 52.5984 316.86 51.9734 317.582 51.9557C318.437 51.9557 318.995 52.8107 319.354 53.5732C323.136 61.1325 326.48 68.9034 329.37 76.8466C329.631 77.5685 329.884 78.3972 329.53 79.0622C329.214 79.5325 328.764 79.8981 328.24 80.1123L323.254 82.7223L330.908 82.4209C331.418 85.9264 331.931 89.4666 331.661 92.9983C331.497 95.1123 330.331 97.7799 328.213 97.4609C329.946 97.5185 330.615 99.7079 330.815 101.449L333.473 124.492C333.562 125.268 333.616 126.149 333.079 126.708C332.636 127.191 331.874 127.249 331.205 127.279C326.631 127.483 324.376 128.281 321.637 124.62C318.686 120.694 317.068 114.88 313.576 111.389Z" fill="#9CD1C0"/>
<path d="M313.576 111.389C312.433 109.51 311.293 107.063 312.556 105.269C313.513 103.908 315.504 103.567 316.403 102.167C311.825 101.724 309.312 96.6413 308.342 92.148C306.923 85.4724 306.868 78.5794 308.179 71.8822C309.49 65.185 312.142 58.8213 315.973 53.1743C316.372 52.5984 316.86 51.9734 317.582 51.9557C318.437 51.9557 318.995 52.8107 319.354 53.5732C323.136 61.1325 326.48 68.9034 329.37 76.8466C329.631 77.5685 329.884 78.3972 329.53 79.0622C329.214 79.5325 328.764 79.8981 328.24 80.1123L323.254 82.7223L330.908 82.4209C331.418 85.9264 331.931 89.4666 331.661 92.9983C331.497 95.1123 330.331 97.7799 328.213 97.4609C329.946 97.5185 330.615 99.7079 330.815 101.449L333.473 124.492C333.562 125.268 333.616 126.149 333.079 126.708C332.636 127.191 331.874 127.249 331.205 127.279C326.631 127.483 324.376 128.281 321.637 124.62C318.686 120.694 317.068 114.88 313.576 111.389Z" fill="url(#paint1_linear_2_11)"/>
<path d="M353.15 48.5036C355.902 56.1124 355.951 64.412 355.587 72.4947C355.472 75.1538 355.29 77.8836 354.125 80.2761C352.96 82.6692 350.58 84.6457 347.92 84.5212L352.942 87.1803C349.955 94.7134 346.936 102.384 346.059 110.454C345.731 113.458 345.7 116.511 344.934 119.431C344.002 122.923 342.059 126.062 339.35 128.453C337.794 129.823 335.805 130.971 333.748 130.603C330.597 130.036 329.197 126.375 328.466 123.256C326.751 115.896 324.646 107.396 324.96 99.7918C325.218 93.5525 328.01 86.7813 330.416 81.0694C333.053 74.8066 336.354 68.8451 340.263 63.2865C341.401 61.6514 353.349 49.0575 353.15 48.5036Z" fill="#9CD1C0"/>
<path d="M353.15 48.5036C355.902 56.1124 355.951 64.412 355.587 72.4947C355.472 75.1538 355.29 77.8836 354.125 80.2761C352.96 82.6692 350.58 84.6457 347.92 84.5212L352.942 87.1803C349.955 94.7134 346.936 102.384 346.059 110.454C345.731 113.458 345.7 116.511 344.934 119.431C344.002 122.923 342.059 126.062 339.35 128.453C337.794 129.823 335.805 130.971 333.748 130.603C330.597 130.036 329.197 126.375 328.466 123.256C326.751 115.896 324.646 107.396 324.96 99.7918C325.218 93.5525 328.01 86.7813 330.416 81.0694C333.053 74.8066 336.354 68.8451 340.263 63.2865C341.401 61.6514 353.349 49.0575 353.15 48.5036Z" fill="url(#paint2_linear_2_11)"/>
<path d="M350.393 98.3473C356.318 92.4932 347.819 83.3518 356.088 82.3633C350.491 91.2262 360.462 106.089 350.42 109.12C350.699 111.309 348.302 112.731 346.431 113.879C344.047 115.349 341.979 117.28 340.35 119.559C338.721 121.837 337.563 124.419 336.943 127.151C337.533 124.492 337.166 122.95 338.503 120.3C339.665 118.009 340.276 115.798 341.127 113.267C343.01 107.64 346.184 102.53 350.393 98.3473Z" fill="#9CD1C0"/>
<path d="M350.393 98.3473C356.318 92.4932 347.819 83.3518 356.088 82.3633C350.491 91.2262 360.462 106.089 350.42 109.12C350.699 111.309 348.302 112.731 346.431 113.879C344.047 115.349 341.979 117.28 340.35 119.559C338.721 121.837 337.563 124.419 336.943 127.151C337.533 124.492 337.166 122.95 338.503 120.3C339.665 118.009 340.276 115.798 341.127 113.267C343.01 107.64 346.184 102.53 350.393 98.3473Z" fill="url(#paint3_linear_2_11)"/>
<path d="M315.22 136.741H351.244V181.027C351.244 184.788 349.75 188.395 347.091 191.054C344.431 193.713 340.824 195.208 337.063 195.208H329.414C325.653 195.208 322.046 193.713 319.387 191.054C316.727 188.395 315.233 184.788 315.233 181.027V136.741H315.22Z" fill="#68E1FD"/>
<path d="M315.22 136.741H351.244V181.027C351.244 184.788 349.75 188.395 347.091 191.054C344.431 193.713 340.824 195.208 337.063 195.208H329.414C325.653 195.208 322.046 193.713 319.387 191.054C316.727 188.395 315.233 184.788 315.233 181.027V136.741H315.22Z" fill="url(#paint4_linear_2_11)"/>
<path d="M274.804 77.0588H74.2338C58.8832 77.0588 46.4389 89.5026 46.4389 104.852V175.652C46.4389 191.002 58.8832 203.445 74.2338 203.445H274.804C290.154 203.445 302.599 191.002 302.599 175.652V104.852C302.599 89.5026 290.154 77.0588 274.804 77.0588Z" fill="#9CD1C0"/>
<path d="M274.804 77.0588H74.2338C58.8832 77.0588 46.4389 89.5026 46.4389 104.852V175.652C46.4389 191.002 58.8832 203.445 74.2338 203.445H274.804C290.154 203.445 302.599 191.002 302.599 175.652V104.852C302.599 89.5026 290.154 77.0588 274.804 77.0588Z" fill="url(#paint5_linear_2_11)"/>
<path d="M262.772 86.4669H83.1505C68.6634 86.4669 56.9197 98.2097 56.9197 112.696V184.484C56.9197 198.969 68.6634 210.713 83.1505 210.713H262.772C277.258 210.713 289.003 198.969 289.003 184.484V112.696C289.003 98.2097 277.258 86.4669 262.772 86.4669Z" fill="url(#paint6_linear_2_11)"/>
<path d="M165.157 120.823C164.793 123.296 166.965 125.365 169.048 126.743C172.682 129.14 176.679 130.936 180.885 132.061C181.798 132.305 182.786 132.552 183.398 133.28C184.674 134.799 183.371 137.183 181.691 138.243C180.012 139.301 177.92 139.807 176.635 141.322C174.787 143.498 175.071 147.243 172.62 148.709C171.916 149.077 171.152 149.317 170.364 149.418L161.683 151.053C180.091 152.158 198.545 152.338 216.971 151.594C215.547 147.041 214.128 142.49 212.713 137.941C210.745 131.635 208.547 124.971 203.477 120.739C200.818 118.523 197.592 117.163 194.348 115.997C189.695 114.322 179.941 109.944 174.982 111.38C172.363 112.146 165.564 118.062 165.157 120.823Z" fill="url(#paint7_linear_2_11)"/>
<path d="M97.859 78.0343C97.158 78.6514 96.6601 79.4664 96.4302 80.3717C96.1996 81.2771 96.2481 82.2309 96.5691 83.1081C96.9235 84.0253 97.593 84.947 97.3316 85.8949C97.101 86.7328 96.2278 87.2025 95.4567 87.6054C85.2285 92.9236 78.3643 102.881 71.9206 112.443C70.254 114.916 68.535 117.544 68.349 120.517C68.0738 124.904 71.1804 128.751 74.4513 131.68C77.7216 134.609 81.4839 137.299 83.3143 141.305C85.1446 145.311 83.8462 151.133 79.6005 152.268C78.7672 152.489 77.8723 152.52 77.1058 152.919C76.3387 153.318 75.7759 154.284 76.1749 155.042C76.5516 155.724 77.4733 155.835 78.2581 155.857C103.494 156.658 128.741 157.058 153.999 157.058C155.74 157.058 157.543 157.036 159.095 156.207C159.781 155.872 160.331 155.312 160.654 154.621C161.696 152.143 158.439 149.857 158.279 147.172C158.093 144.349 161.146 142.585 162.879 140.348C165.418 137.068 165.095 132.269 163.234 128.56C161.372 124.851 158.293 121.94 155.376 118.988C147.232 110.735 140.092 101.547 134.105 91.616C133.462 90.5482 132.806 89.3336 133.072 88.1112C133.338 86.8881 134.402 86.0456 134.495 84.8586C134.517 84.0836 134.269 83.3256 133.794 82.7137C130.745 78.2203 124.249 78.3442 118.82 78.4595C114.731 78.5433 110.64 78.3533 106.576 77.8921C103.881 77.5862 100.154 76.0618 97.859 78.0343Z" fill="url(#paint8_linear_2_11)"/>
<path d="M214.933 78.8984C218.322 78.601 221.724 78.4811 225.126 78.5394C228.427 78.5833 238.571 76.9481 242.821 77.0588C245.923 77.1434 237.175 86.7551 238.832 89.3958C241.492 93.6324 246.645 95.4445 250.798 98.2588C255.647 101.557 259.276 106.359 261.123 111.925C262.564 116.303 262.838 120.973 263.038 125.577C263.175 128.751 263.259 132.061 261.926 134.941C260.512 137.99 257.525 140.614 257.835 143.959C257.955 145.244 258.566 146.423 258.863 147.682C259.16 148.94 259.027 150.455 257.977 151.226C257.506 151.537 256.974 151.746 256.417 151.838C245.4 154.417 233.909 152.724 222.626 151.877C211.662 151.053 200.654 151.031 189.655 150.992C192.209 146.363 194.396 141.542 196.196 136.572C196.639 135.318 197.082 134.011 197.002 132.681C196.883 130.86 195.815 129.256 194.848 127.705C191.379 122.153 188.778 115.851 188.715 109.306C188.649 102.313 191.76 95.7242 197.685 91.9128C200.167 90.3176 202.325 88.5187 204.682 86.7813C206.012 85.7888 216.546 90.1977 217.782 89.0722C219.019 87.9467 213.661 79.0045 214.933 78.8984Z" fill="url(#paint9_linear_2_11)"/>
<path d="M157.535 127.368C157.45 127.643 157.353 127.913 157.238 128.197C154.787 134.37 145.295 143.077 145.295 143.077L144.967 151.776C135.523 157.257 91.3446 152.826 91.3446 152.826C91.3446 152.826 89.1906 145.891 88.7163 145.656C88.242 145.421 79.1484 136.638 75.865 132.043C75.43 131.483 75.0684 130.869 74.788 130.218C73.5335 126.832 79.5959 119.356 86.4431 103.147C93.2896 86.9366 108.131 89.2013 108.131 89.2013C108.131 89.2013 136.374 88.6602 143.022 92.9367C149.669 97.2126 159.387 121.186 157.535 127.368Z" fill="#75A9A8"/>
<path opacity="0.4" d="M155.549 131.348C153.249 134.932 149.704 138.726 147.435 141.003C146.05 142.399 145.243 144.267 145.175 146.232C145.111 148.04 144.42 149.768 143.219 151.121C142.019 152.474 140.385 153.367 138.598 153.646C127.036 155.418 106.181 154.089 96.5245 153.287C95.0257 153.161 93.5949 152.607 92.4032 151.689C91.2116 150.77 90.3102 149.528 89.8064 148.111C89.3635 146.821 88.92 145.749 88.7386 145.66C88.4326 145.505 83.3051 140.609 79.3345 136.213C78.2653 135.034 77.5821 133.556 77.3751 131.978C77.1687 130.4 77.4484 128.796 78.1782 127.382C80.3538 123.18 83.3189 117.602 86.4431 110.201C92.6469 95.4667 105.499 96.0209 107.764 96.2201C108.043 96.247 108.313 96.2555 108.592 96.2555C112.332 96.207 136.865 96.0432 143.003 99.9916C147.67 102.991 153.852 115.687 156.485 125.135C156.774 126.178 156.84 127.27 156.679 128.341C156.517 129.411 156.133 130.436 155.549 131.348Z" fill="url(#paint10_linear_2_11)"/>
<path d="M257.95 130.43C257.711 127.084 249.402 105.513 243.605 102.012C239.555 99.5658 225.334 92.241 217.127 88.0444C213.229 86.0509 208.742 85.5314 204.492 86.5822C196.781 88.4833 184.16 91.8552 176.488 95.2984C164.873 100.537 167.47 106.222 167.701 109.093C167.931 111.965 191.99 127.151 191.99 127.151L194.734 139.78L197.091 139.723L220.189 139.182L223.597 145.125L224.355 146.454C224.355 146.454 227.2 145.7 231.135 144.681L233.501 144.065C240.685 142.2 249.995 139.829 253.209 139.191C258.704 138.114 258.19 133.776 257.95 130.43ZM199.506 117.757L190.794 109.749L188.188 106.709L196.816 104.936C197.703 104.826 198.589 104.737 199.506 104.657V117.757ZM235.721 122.591C236.022 121.776 236.241 120.933 236.373 120.074L236.581 118.722L237.175 114.849L242.798 128.095L241.912 128.312L234.747 130.085C234.923 127.57 235.248 125.067 235.721 122.591Z" fill="#C4C4C4"/>
<path opacity="0.1" d="M251.56 127.231C251.436 129.229 249.973 130.949 248.258 131.954C246.543 132.961 244.523 133.368 242.555 133.758C241.381 133.993 240.153 134.232 238.988 133.953C237.822 133.674 236.718 132.73 236.665 131.529C238.669 131.083 240.606 130.375 242.426 129.424C243.038 129.181 243.542 128.725 243.845 128.139C244.062 127.581 242.692 128.321 241.961 128.307L242.848 128.091L237.223 114.845L236.63 118.718C236.289 120.048 236.005 121.332 235.77 122.587C235.301 125.067 234.98 127.572 234.809 130.089C234.551 133.634 234.521 137.254 234.49 141.508C234.542 142.232 234.367 142.954 233.989 143.573C233.858 143.746 233.699 143.896 233.519 144.017C232.799 144.428 231.982 144.641 231.153 144.633H231.073L223.614 145.075L211.769 145.789C208.747 145.971 205.613 146.143 202.79 145.04C201.073 144.346 199.566 143.218 198.414 141.768C197.263 140.317 196.509 138.593 196.223 136.762C195.553 132.11 197.995 127.669 199.728 123.291C202.085 117.276 203.128 110.826 202.786 104.374C201.696 104.427 200.608 104.501 199.524 104.596C198.638 104.675 197.73 104.764 196.834 104.875C193.855 105.221 190.897 105.724 187.971 106.382L188.197 106.647L190.802 109.687L197.278 117.22C188.414 120.043 177.778 114.486 175.013 105.597C174.75 104.87 174.646 104.095 174.707 103.323C175.018 101.05 177.53 99.8894 179.693 99.1314L198.687 92.4847C205.232 90.2069 211.259 88.7624 217.743 91.6337C223.361 94.1198 238.757 103.071 242.772 108.189C244.988 111.03 245.276 117.858 247.974 120.597C249.787 122.502 251.715 124.665 251.56 127.231Z" fill="#68E1FD"/>
<path d="M308.413 175.922V189.451C308.414 192.62 307.791 195.757 306.58 198.686C305.368 201.613 303.591 204.274 301.351 206.516C299.112 208.757 296.453 210.535 293.525 211.748C290.598 212.962 287.46 213.587 284.292 213.589H61.6792C55.2807 213.589 49.1443 211.047 44.6198 206.523C40.0954 201.999 37.5536 195.863 37.5536 189.464V175.922C37.5512 169.529 40.0882 163.397 44.6065 158.874C49.1249 154.351 55.2547 151.807 61.6482 151.802H284.292C290.685 151.8 296.818 154.337 301.341 158.855C305.864 163.373 308.408 169.503 308.413 175.896V175.922Z" fill="#68E1FD"/>
<path d="M308.413 175.922V189.451C308.414 192.62 307.791 195.757 306.58 198.686C305.368 201.613 303.591 204.274 301.351 206.516C299.112 208.757 296.453 210.535 293.525 211.748C290.598 212.962 287.46 213.587 284.292 213.589H61.6792C55.2807 213.589 49.1443 211.047 44.6198 206.523C40.0954 201.999 37.5536 195.863 37.5536 189.464V175.922C37.5512 169.529 40.0882 163.397 44.6065 158.874C49.1249 154.351 55.2547 151.807 61.6482 151.802H284.292C290.685 151.8 296.818 154.337 301.341 158.855C305.864 163.373 308.408 169.503 308.413 175.896V175.922Z" fill="url(#paint11_linear_2_11)"/>
<path d="M304.301 162.433C302.092 165.71 299.113 168.394 295.624 170.249C292.135 172.103 288.243 173.072 284.292 173.068H61.6792C57.7273 173.071 53.8354 172.102 50.3457 170.247C46.856 168.393 43.8755 165.709 41.6661 162.433C43.8749 159.156 46.8554 156.472 50.3452 154.618C53.835 152.763 57.7272 151.795 61.6792 151.798H284.292C288.243 151.794 292.135 152.761 295.625 154.616C299.114 156.47 302.094 159.155 304.301 162.433Z" fill="#68E1FD"/>
<path d="M304.301 162.433C302.092 165.71 299.113 168.394 295.624 170.249C292.135 172.103 288.243 173.072 284.292 173.068H61.6792C57.7273 173.071 53.8354 172.102 50.3457 170.247C46.856 168.393 43.8755 165.709 41.6661 162.433C43.8749 159.156 46.8554 156.472 50.3452 154.618C53.835 152.763 57.7272 151.795 61.6792 151.798H284.292C288.243 151.794 292.135 152.761 295.625 154.616C299.114 156.47 302.094 159.155 304.301 162.433Z" fill="url(#paint12_linear_2_11)"/>
<path d="M191.158 179.171C189.579 188.201 188.055 197.711 191.091 206.356C191.534 207.655 192.389 209.118 193.75 209.144C194.755 209.144 195.584 208.364 196.178 207.553C199.843 202.568 199.28 195.784 199.103 189.602C198.828 179.21 200.752 167.702 208.8 161.117C211.928 158.56 216.497 156.983 219.98 159.025C223.8 161.268 224.355 166.465 224.478 170.893C224.682 178.018 224.885 185.147 225.086 192.278C225.249 198.15 225.529 204.434 229.074 209.153C231.321 212.183 235.721 214.271 238.855 212.162C240.995 210.717 241.678 207.916 242.063 205.368C244.122 191.557 242.388 177.445 237.047 164.543C234.933 159.451 232.034 154.351 227.266 151.581C224.678 150.083 221.7 149.365 218.73 149.015C210.852 148.082 202.873 149.469 195.771 153.004C190.838 155.471 193.887 158.347 194.117 162.256C194.415 167.472 192.057 174.017 191.158 179.171Z" fill="url(#paint13_linear_2_11)"/>
<path d="M106.611 212.015C107.285 210.925 107.267 209.56 107.241 208.28C107.042 197.85 107.784 187.424 109.456 177.127C110.081 173.286 110.888 169.333 113.139 166.16C115.39 162.987 119.459 160.803 123.216 161.844C124.245 162.136 125.273 162.73 125.68 163.714C125.875 164.284 125.961 164.885 125.933 165.487C126.069 178.485 125.978 191.483 125.659 204.482C125.596 206.99 125.587 209.707 127.094 211.71C129.615 215.069 134.787 214.559 138.749 213.177C140.141 212.689 141.568 212.095 142.516 210.961C143.66 209.587 143.89 207.695 144.059 205.918C145.507 190.628 145.929 175.258 145.321 159.912C145.277 158.791 145.215 157.629 144.687 156.641C143.588 154.59 140.97 154.014 138.67 153.655C129.389 152.215 119.981 150.766 110.639 151.723C108.468 151.949 106.235 152.326 104.435 153.526C102.721 154.656 101.524 156.407 100.42 158.135C95.2798 166.204 90.9895 175.036 89.6072 184.506C88.4857 192.176 89.3858 200.428 93.0682 207.332C94.9117 210.877 103.181 217.523 106.611 212.015Z" fill="url(#paint14_linear_2_11)"/>
<path d="M46.758 135.628H39.8846C34.2725 135.628 29.7229 140.177 29.7229 145.789V152.662C29.7229 158.274 34.2725 162.823 39.8846 162.823H46.758C52.3702 162.823 56.9197 158.274 56.9197 152.662V145.789C56.9197 140.177 52.3702 135.628 46.758 135.628Z" fill="#68E1FD"/>
<path d="M306.037 135.628H299.164C293.552 135.628 289.003 140.177 289.003 145.789V152.662C289.003 158.274 293.552 162.823 299.164 162.823H306.037C311.65 162.823 316.199 158.274 316.199 152.662V145.789C316.199 140.177 311.65 135.628 306.037 135.628Z" fill="#68E1FD"/>
<path d="M46.758 135.628H39.8846C34.2725 135.628 29.7229 140.177 29.7229 145.789V152.662C29.7229 158.274 34.2725 162.823 39.8846 162.823H46.758C52.3702 162.823 56.9197 158.274 56.9197 152.662V145.789C56.9197 140.177 52.3702 135.628 46.758 135.628Z" fill="url(#paint15_linear_2_11)"/>
<path d="M306.037 135.628H299.164C293.552 135.628 289.003 140.177 289.003 145.789V152.662C289.003 158.274 293.552 162.823 299.164 162.823H306.037C311.65 162.823 316.199 158.274 316.199 152.662V145.789C316.199 140.177 311.65 135.628 306.037 135.628Z" fill="url(#paint16_linear_2_11)"/>
<path d="M106.669 79.146C106.669 79.146 106.86 98.3872 117.092 99.814C127.324 101.241 131.53 89.7679 132.753 81.1362C133.976 72.5039 123.332 58.5363 112.621 65.7058C105.845 70.226 106.669 79.146 106.669 79.146Z" fill="url(#paint17_linear_2_11)"/>
<path d="M107.48 86.4715C106.749 82.1864 106.035 77.5423 107.378 73.4079C108.18 70.9349 109.642 68.3158 112.169 67.6823C115.546 66.8359 118.501 69.8979 121.719 71.2277C124.936 72.5569 129.044 72.2956 131.388 74.8924C132.461 76.0755 132.952 77.6615 133.409 79.1952C134.225 75.7545 133.798 72.1364 132.204 68.9807C132.834 69.5834 133.676 69.9162 134.548 69.907C134.592 67.2971 133.218 64.8509 131.508 62.8875C127.754 58.594 121.86 56.0017 116.245 57.0027C109.017 58.288 107.586 63.7785 104.874 69.2997C102.113 74.9278 103.611 80.0324 107.48 86.4715Z" fill="#333335"/>
<path d="M112.722 97.7446C112.722 97.7446 113.166 108.14 118.638 107.299C124.112 106.457 125.149 97.7446 125.149 97.7446C123.303 98.9565 121.144 99.6025 118.935 99.6025C116.727 99.6025 114.568 98.9565 112.722 97.7446Z" fill="url(#paint18_linear_2_11)"/>
<path d="M210.998 72.7522C210.998 72.7522 211.184 91.9927 221.421 93.4196C231.658 94.8464 235.854 83.3735 237.082 74.7418C238.31 66.1094 227.656 52.1418 216.945 59.3113C210.173 63.8316 210.998 72.7522 210.998 72.7522Z" fill="url(#paint19_linear_2_11)"/>
<path d="M217.051 91.35C217.051 91.35 217.494 101.746 222.967 100.904C228.44 100.062 229.473 91.35 229.473 91.35C227.629 92.5646 225.47 93.2119 223.262 93.2119C221.054 93.2119 218.895 92.5646 217.051 91.35Z" fill="url(#paint20_linear_2_11)"/>
<path d="M95.9795 136.523C95.9795 136.523 87.2141 141.881 88.734 145.647C90.2538 149.414 98.3549 142.523 98.71 141.411C99.0644 140.298 101.798 135.234 95.9795 136.523Z" fill="url(#paint21_linear_2_11)"/>
<path d="M102.729 145.191C102.729 145.191 98.2357 146.219 95.9795 144.092C94.4151 142.695 92.6397 141.554 90.7196 140.71L96.9235 134.95C96.9235 134.95 102.88 131.733 106.088 131.441C109.297 131.148 110.719 132.77 110.719 132.77C110.719 132.77 107.87 136.178 106.088 135.628C104.307 135.079 102.1 137.307 102.1 137.307C102.1 137.307 101.214 141.832 102.76 142.182C104.307 142.532 107.488 144.442 107.488 144.442C107.488 144.442 109.461 146.29 102.729 145.191Z" fill="url(#paint22_linear_2_11)"/>
<path d="M137.872 133.953C137.872 133.953 146.638 139.315 145.113 143.077C143.588 146.839 135.496 139.975 135.142 138.845C134.787 137.715 132.062 132.668 137.872 133.953Z" fill="url(#paint23_linear_2_11)"/>
<path d="M131.122 142.634C131.122 142.634 135.612 143.662 137.872 141.535C139.441 140.139 141.219 138.996 143.141 138.15L136.937 132.389C136.937 132.389 130.981 129.171 127.772 128.879C124.564 128.586 123.141 130.208 123.141 130.208C123.141 130.208 125.991 133.616 127.772 133.067C129.554 132.517 131.76 134.746 131.76 134.746C131.76 134.746 132.647 139.271 131.101 139.62C129.554 139.971 126.372 141.881 126.372 141.881C126.372 141.881 124.373 143.724 131.122 142.634Z" fill="url(#paint24_linear_2_11)"/>
<path d="M108.331 134.959C108.331 134.959 109.992 136.058 113.791 135.628C117.588 135.198 122.525 134.299 123.146 133.567C123.732 132.982 124.408 132.495 125.149 132.123C125.149 132.123 129.58 130.842 131.796 134.742C134.012 138.642 129.988 140.029 129.988 140.029C129.988 140.029 128.047 143.29 123.159 143.192C118.271 143.095 107.471 144.455 107.471 144.455C107.471 144.455 99.937 141.322 100.726 139.182C101.515 137.042 102.867 134.29 108.331 134.959Z" fill="url(#paint25_linear_2_11)"/>
<path d="M106.044 138.477C106.044 138.477 101.847 140.471 103.385 142.975C104.923 145.479 109.678 144.194 109.678 144.194C109.678 144.194 120.668 142.997 123.159 143.192C125.649 143.387 131.663 141.238 131.951 138.477C132.239 135.717 130.546 133.869 125.162 135.912C119.778 137.954 116.627 139.457 112.634 138.836C110.457 138.469 108.247 138.349 106.044 138.477Z" fill="url(#paint26_linear_2_11)"/>
<path d="M96.9104 134.959L90.7059 124.798C90.7059 124.798 98.5324 112.944 99.2858 110.534C100.039 108.123 106.084 131.449 106.084 131.449C106.084 131.449 97.8413 133.381 96.9104 134.959Z" fill="url(#paint27_linear_2_11)"/>
<path d="M137.872 133.953L144.076 121.798L138.71 110.361L134.544 131.188C134.544 131.188 137.251 131.29 137.872 133.953Z" fill="url(#paint28_linear_2_11)"/>
<path d="M84.103 148.448C84.103 148.448 88.0913 142.018 102.716 145.204C117.34 148.39 128.76 149.046 131.965 146.76C135.169 144.473 136.937 141.801 145.109 143.077C153.896 144.455 153.258 149.184 155.395 156.672C157.765 164.977 150.232 202.572 150.232 202.572H137.185C137.185 202.572 137.482 156.837 130.652 155.503C126.287 154.647 117.491 154.559 112.722 154.479C109.913 154.43 105.871 158.37 104.865 160.993C101.931 168.659 96.8043 185.206 100.407 199.772L87.6747 200.902C87.6747 200.902 74.2607 174.54 84.103 148.448Z" fill="#333335"/>
<path d="M87.6747 200.902L89.3897 209.467C89.3897 209.467 94.4066 211.036 96.9235 207.974C99.4411 204.912 98.3818 199.949 98.3818 199.949L87.6747 200.902Z" fill="url(#paint29_linear_2_11)"/>
<path d="M84.6435 210.624L88.4818 204.908C88.4818 204.908 89.7756 210.367 98.3995 204.575L98.6078 202.164C98.6078 202.164 99.0199 201.788 99.9062 203.445C100.793 205.102 101.484 210.877 101.484 210.877C101.484 210.877 100.948 214.617 99.1659 215.773C97.9383 216.571 92.324 220.816 88.9738 223.364C88.0304 224.082 86.9272 224.561 85.7591 224.76C84.5904 224.957 83.3909 224.87 82.2641 224.503C80.4515 223.9 80.137 224.56 80.1101 222.797C80.0702 219.088 81.5062 213.536 84.6435 210.624Z" fill="#75A9A8"/>
<path d="M148.291 202.572L147.063 208.714C146.839 209.891 146.158 210.93 145.168 211.604C144.178 212.278 142.961 212.531 141.785 212.308L141.647 212.281C140.558 212.043 139.579 211.449 138.864 210.593C136.36 207.526 137.38 202.568 137.38 202.568L148.291 202.572Z" fill="url(#paint30_linear_2_11)"/>
<path d="M147.297 207.531C147.297 207.531 146.004 212.991 137.38 207.199L137.176 204.788C137.176 204.788 136.764 204.407 135.873 206.069C134.982 207.73 134.278 213.536 134.278 213.536C134.278 213.536 134.814 217.276 136.596 218.41C138.053 219.358 151.437 232.559 156.622 225.735C157.203 225.009 157.526 224.112 157.539 223.182C157.592 219.46 147.297 207.531 147.297 207.531Z" fill="#68E1FD"/>
<path d="M84.6435 210.624L88.4818 204.908C88.4818 204.908 89.7756 210.367 98.3995 204.575L98.6078 202.164C98.6078 202.164 99.0199 201.788 99.9062 203.445C100.793 205.102 101.484 210.877 101.484 210.877C101.484 210.877 100.948 214.617 99.1659 215.773C97.9383 216.571 92.324 220.816 88.9738 223.364C88.0304 224.082 86.9272 224.561 85.7591 224.76C84.5904 224.957 83.3909 224.87 82.2641 224.503C80.4515 223.9 80.137 224.56 80.1101 222.797C80.0702 219.088 81.5062 213.536 84.6435 210.624Z" fill="url(#paint31_linear_2_11)"/>
<path d="M147.297 207.531C147.297 207.531 146.004 212.991 137.38 207.199L137.176 204.788C137.176 204.788 136.764 204.407 135.873 206.069C134.982 207.73 134.278 213.536 134.278 213.536C134.278 213.536 134.814 217.276 136.596 218.41C138.053 219.358 151.437 232.559 156.622 225.735C157.203 225.009 157.526 224.112 157.539 223.182C157.592 219.46 147.297 207.531 147.297 207.531Z" fill="url(#paint32_linear_2_11)"/>
<path d="M247.554 205.04L246.397 210.85C246.187 211.961 245.543 212.944 244.608 213.581C243.673 214.219 242.523 214.459 241.412 214.249L241.279 214.222C240.251 213.995 239.327 213.434 238.651 212.627C236.28 209.729 237.246 205.04 237.246 205.04H247.554Z" fill="url(#paint33_linear_2_11)"/>
<path d="M246.614 209.729C246.614 209.729 245.391 214.887 237.241 209.414L237.047 207.137C237.047 207.137 236.656 206.778 235.819 208.347C234.981 209.915 234.308 215.383 234.308 215.383C234.308 215.383 234.813 218.928 236.497 220.014C237.875 220.9 250.523 233.383 255.42 226.936C255.977 226.255 256.289 225.406 256.306 224.525C256.342 221.002 246.614 209.729 246.614 209.729Z" fill="#68E1FD"/>
<path d="M181.696 195.234L182.861 201.043C183.072 202.154 183.715 203.135 184.649 203.772C185.583 204.409 186.732 204.648 187.842 204.438L187.975 204.411C189.004 204.185 189.928 203.624 190.603 202.816C192.974 199.918 192.008 195.234 192.008 195.234H181.696Z" fill="url(#paint34_linear_2_11)"/>
<path d="M182.658 199.922C182.658 199.922 183.881 205.08 192.03 199.603L192.225 197.326C192.225 197.326 192.615 196.967 193.453 198.536C194.29 200.104 194.964 205.559 194.964 205.559C194.964 205.559 194.459 209.104 192.779 210.185C191.397 211.072 178.749 223.559 173.852 217.111C173.296 216.429 172.984 215.581 172.965 214.701C172.93 211.191 182.658 199.922 182.658 199.922Z" fill="#68E1FD"/>
<path d="M246.614 209.729C246.614 209.729 245.391 214.887 237.241 209.414L237.047 207.137C237.047 207.137 236.656 206.778 235.819 208.347C234.981 209.915 234.308 215.383 234.308 215.383C234.308 215.383 234.813 218.928 236.497 220.014C237.875 220.9 250.523 233.383 255.42 226.936C255.977 226.255 256.289 225.406 256.306 224.525C256.342 221.002 246.614 209.729 246.614 209.729Z" fill="url(#paint35_linear_2_11)"/>
<path d="M182.658 199.922C182.658 199.922 183.881 205.08 192.03 199.603L192.225 197.326C192.225 197.326 192.615 196.967 193.453 198.536C194.29 200.104 194.964 205.559 194.964 205.559C194.964 205.559 194.459 209.104 192.779 210.185C191.397 211.072 178.749 223.559 173.852 217.111C173.296 216.429 172.984 215.581 172.965 214.701C172.93 211.191 182.658 199.922 182.658 199.922Z" fill="url(#paint36_linear_2_11)"/>
<path d="M353.899 126.601H312.933V138.836H353.899V126.601Z" fill="#9CD1C0"/>
<path d="M354.032 126.601H313.066V138.836H354.032V126.601Z" fill="url(#paint37_linear_2_11)"/>
<path d="M199.745 139.585C199.745 139.585 181.997 134.144 178.864 147.562C175.731 160.98 180.809 196.94 180.809 196.94H191.002L192.952 194.091C192.952 194.091 195.013 164.268 195.611 162.438C196.209 160.607 202.573 151.802 208.179 151.802C213.785 151.802 227.319 148.257 232.07 164.179C236.821 180.101 236.617 206.086 236.617 206.086L248.44 204.916C248.44 204.916 251.515 171.38 249.769 160.891C248.024 150.402 245.817 142.457 241.89 140.263C237.964 138.07 199.745 139.585 199.745 139.585Z" fill="#333335"/>
<path d="M212.203 140.25C212.203 140.25 209.841 141.805 207.364 143.352C204.886 144.899 202.294 146.401 201.811 146.352C200.836 146.25 199.555 146.201 198.23 141.974C196.905 137.746 194.117 136.953 194.029 136.532C193.94 136.111 188.246 131.25 188.011 130.434C187.842 129.867 187.032 128.095 188.379 126.189C189.194 125.152 190.249 124.329 191.454 123.792C195.28 121.957 199.202 120.33 203.202 118.918C203.521 119.154 203.782 119.458 203.968 119.809C204.154 120.159 204.258 120.546 204.275 120.943C204.395 122.365 202.108 125.994 201.811 127.363C201.514 128.733 204.066 132.624 204.066 132.624C204.066 132.624 205.941 133.586 206.769 133.554C207.598 133.523 216.165 131.259 217.047 131.441C217.929 131.622 222.595 134.166 212.203 140.25Z" fill="#75A9A8"/>
<path d="M212.203 140.25C212.203 140.25 209.841 141.805 207.364 143.352C204.886 144.899 202.294 146.401 201.811 146.352C200.836 146.25 199.555 146.201 198.23 141.974C196.905 137.746 194.117 136.953 194.029 136.532C193.94 136.111 188.246 131.25 188.011 130.434C187.842 129.867 187.032 128.095 188.379 126.189C189.194 125.152 190.249 124.329 191.454 123.792C195.28 121.957 199.202 120.33 203.202 118.918C203.521 119.154 203.782 119.458 203.968 119.809C204.154 120.159 204.258 120.546 204.275 120.943C204.395 122.365 202.108 125.994 201.811 127.363C201.514 128.733 204.066 132.624 204.066 132.624C204.066 132.624 205.941 133.586 206.769 133.554C207.598 133.523 216.165 131.259 217.047 131.441C217.929 131.622 222.595 134.166 212.203 140.25Z" fill="url(#paint38_linear_2_11)"/>
<path d="M207.364 143.343C204.891 144.876 202.294 146.392 201.811 146.343C200.836 146.241 199.555 146.192 198.23 141.965C196.905 137.738 194.104 136.927 194.029 136.523C193.954 136.12 188.246 131.241 188.011 130.426C187.842 129.859 187.032 128.086 188.379 126.18C188.559 126.296 188.721 126.437 188.857 126.601C188.857 126.601 189.593 130.125 191.99 131.192C194.388 132.26 199.745 139.612 199.745 139.612C199.745 139.612 199.555 143.13 201.43 143.759C203.304 144.389 207.364 143.343 207.364 143.343Z" fill="url(#paint39_linear_2_11)"/>
<path d="M221.997 142.333C221.997 142.333 214.508 147.065 211.277 146.255C209.274 145.754 207.309 145.115 205.396 144.34L212.203 140.255C212.203 140.255 211.759 137.312 208.999 136.523C206.238 135.734 208.556 133.27 211.046 133.567C213.537 133.865 215.806 133.948 215.806 133.948L217.791 134.317L221.997 142.333Z" fill="url(#paint40_linear_2_11)"/>
<path d="M185.378 127.403C185.21 128.347 185.3 129.317 185.637 130.213C185.975 131.109 186.549 131.898 187.297 132.495C187.567 132.722 187.891 132.875 188.237 132.938C188.407 132.959 188.58 132.933 188.736 132.863C188.892 132.793 189.026 132.681 189.123 132.539C189.446 131.981 188.937 131.339 188.569 130.816C187.351 129.088 189.044 125.6 190.55 124.111C190.746 123.947 190.913 123.752 191.046 123.535C191.162 123.25 191.16 122.931 191.04 122.647C190.92 122.364 190.693 122.14 190.408 122.024L190.35 122.002C189.712 121.829 187.714 123.402 187.311 123.805C186.31 124.776 185.635 126.033 185.378 127.403Z" fill="url(#paint41_linear_2_11)"/>
<path d="M206.26 67.0488C206.393 65.5198 207.146 63.9868 206.703 62.5155C206.473 61.7175 205.919 61.0532 205.613 60.2999C204.771 58.1419 206.056 55.7397 207.594 54.0115C210.869 50.3468 215.372 48.0693 219.674 45.703C220.942 45.0073 222.231 44.285 223.663 44.0368C225.094 43.7887 226.699 44.1166 227.629 45.22C227.916 45.6664 228.264 46.0707 228.662 46.4209C229.415 46.9172 230.408 46.6336 231.321 46.607C232.099 46.5915 232.867 46.7812 233.549 47.1569C234.23 47.5326 234.801 48.0811 235.203 48.7473C235.939 49.9924 236.089 51.6452 237.259 52.5054C237.986 53.0413 238.974 53.1389 239.688 53.6925C240.206 54.1661 240.608 54.7511 240.867 55.4029C241.457 56.6234 242.048 57.8406 242.639 59.0545C244.172 62.2095 245.741 65.7727 244.656 69.1091C244.244 70.211 243.69 71.2539 243.007 72.2111C242.141 73.5527 241.276 74.8964 240.41 76.2439C239.4 77.8122 237.902 79.5981 236.08 79.1952C236.151 77.2187 236.224 75.2422 236.298 73.2658C236.298 72.7653 236.298 72.158 235.854 71.9143C235.491 71.7151 235.048 71.8743 234.636 71.9143C232.677 71.9942 232.176 69.2559 230.891 67.7753C230.495 67.3285 229.996 66.9853 229.436 66.7763C228.877 66.5666 228.275 66.4972 227.683 66.5745C226.645 66.7252 225.639 67.3233 224.611 67.1196C223.428 66.8804 222.71 65.6881 221.678 65.0678C219.196 63.5833 216.196 65.7727 214.144 67.8107L212.088 69.8625C211.68 70.2706 211.241 70.7489 211.241 71.3208C211.214 75.4021 206.021 69.8448 206.26 67.0488Z" fill="#333335"/>
<path d="M188.188 106.709L190.794 109.749L187.617 106.824L188.188 106.709Z" fill="url(#paint42_linear_2_11)"/>
<path d="M199.506 104.383V104.657C198.62 104.737 197.711 104.826 196.816 104.936L199.506 104.383Z" fill="url(#paint43_linear_2_11)"/>
<path opacity="0.26" d="M235.721 122.591C235.253 125.07 234.932 127.576 234.76 130.093L217.791 134.317L228.396 130.098C230.075 129.43 231.594 128.415 232.856 127.122C234.118 125.829 235.094 124.286 235.721 122.591Z" fill="#68E1FD"/>
<path d="M191.547 128.321C191.632 128.468 191.76 128.586 191.915 128.658C192.043 128.685 192.176 128.675 192.3 128.632C192.423 128.588 192.533 128.511 192.615 128.41C193.466 127.589 193.399 126.242 193.665 125.09C193.945 123.855 194.649 122.757 195.656 121.988C196.772 121.133 198.248 120.694 199.054 119.543C199.319 119.126 199.533 118.68 199.692 118.213C199.75 118.067 199.79 117.871 199.662 117.77C199.612 117.742 199.558 117.726 199.502 117.721C197.038 117.424 194.539 117.641 192.163 118.359C191.277 118.629 190.36 119.006 189.823 119.769C189.287 120.531 189.247 121.625 189.411 122.582C189.494 123.087 189.737 123.553 190.103 123.912C190.252 124.065 190.368 124.247 190.444 124.447C190.52 124.646 190.555 124.859 190.546 125.072C190.605 126.221 190.949 127.338 191.547 128.321Z" fill="url(#paint44_linear_2_11)"/>
<path d="M194.521 126.734C194.379 126.761 194.25 126.835 194.155 126.944C194.061 127.054 194.007 127.192 194.002 127.337C194.006 127.483 194.05 127.623 194.128 127.746C194.206 127.869 194.316 127.968 194.446 128.033C194.577 128.094 194.718 128.129 194.863 128.135C195.008 128.141 195.152 128.119 195.287 128.068C195.363 128.047 195.432 128.005 195.487 127.948C195.566 127.848 195.606 127.722 195.598 127.594C195.6 127.451 195.57 127.309 195.509 127.179C195.449 127.05 195.359 126.936 195.247 126.845C195.131 126.761 194.992 126.715 194.849 126.715C194.706 126.715 194.566 126.761 194.45 126.845" fill="url(#paint45_linear_2_11)"/>
<path d="M195.775 123.805C195.633 123.832 195.504 123.906 195.409 124.015C195.315 124.125 195.261 124.263 195.257 124.408C195.261 124.553 195.304 124.694 195.382 124.817C195.46 124.939 195.57 125.039 195.699 125.104C195.965 125.226 196.267 125.239 196.542 125.139C196.618 125.115 196.687 125.074 196.746 125.019C196.826 124.92 196.864 124.793 196.852 124.665C196.854 124.521 196.824 124.38 196.763 124.25C196.703 124.12 196.613 124.006 196.502 123.916C196.386 123.832 196.246 123.786 196.103 123.786C195.96 123.786 195.82 123.832 195.704 123.916" fill="url(#paint46_linear_2_11)"/>
<path d="M198.412 124.519C198.269 124.545 198.14 124.619 198.046 124.728C197.952 124.839 197.898 124.977 197.893 125.122C197.897 125.266 197.941 125.408 198.019 125.53C198.096 125.653 198.207 125.752 198.336 125.817C198.602 125.939 198.904 125.952 199.179 125.853C199.254 125.831 199.323 125.79 199.378 125.733C199.458 125.633 199.497 125.506 199.489 125.378C199.491 125.235 199.46 125.093 199.4 124.964C199.339 124.834 199.25 124.719 199.139 124.63C199.023 124.545 198.883 124.5 198.74 124.5C198.596 124.5 198.457 124.545 198.341 124.63" fill="url(#paint47_linear_2_11)"/>
<path d="M197.618 126.734C197.475 126.757 197.344 126.831 197.249 126.941C197.154 127.051 197.101 127.192 197.1 127.337C197.103 127.483 197.146 127.624 197.224 127.747C197.302 127.87 197.413 127.969 197.543 128.033C197.674 128.094 197.816 128.129 197.961 128.135C198.105 128.141 198.25 128.119 198.385 128.068C198.485 128.039 198.571 127.975 198.628 127.888C198.686 127.802 198.712 127.697 198.7 127.594C198.701 127.45 198.669 127.309 198.608 127.179C198.547 127.05 198.457 126.936 198.345 126.845C198.231 126.759 198.092 126.713 197.948 126.713C197.806 126.713 197.667 126.759 197.552 126.845" fill="url(#paint48_linear_2_11)"/>
<path d="M193.812 135.597C184.815 141.083 177.947 159.907 174.517 169.865C173.187 173.706 172.216 178.129 171.277 182.671C169.779 189.929 168.366 197.489 165.8 203.454C159.502 218.078 150.085 223.289 146.3 238.905H143.291C142.459 231.684 140.024 224.741 136.161 218.583C129.385 207.504 117.158 195.145 112.142 182.689C111.673 181.529 111.264 180.346 110.919 179.144C107.87 168.407 108.565 137.268 119.033 137.268C109.775 140.813 110.936 158.981 110.702 169.723C110.626 174.185 111.534 178.609 113.361 182.68C115.878 188.543 119.853 193.878 123.686 199.878C130.103 209.933 139.143 216.814 145.468 233.632L159.914 210.867C161.909 207.726 163.903 204.567 165.308 201.119C167.523 195.606 168.778 188.946 170.085 182.68C170.564 180.362 171.051 178.102 171.596 175.971C175.048 162.482 179.502 152.042 188.72 139.527C190.116 137.587 193.125 133.302 193.812 135.597Z" fill="white"/>
<defs>
<linearGradient id="paint0_linear_2_11" x1="189.744" y1="105.845" x2="186.748" y2="220.63" gradientUnits="userSpaceOnUse">
<stop/>
<stop offset="0.99" stop-opacity="0"/>
</linearGradient>
<linearGradient id="paint1_linear_2_11" x1="20278.6" y1="34732.6" x2="19053.8" y2="34732.6" gradientUnits="userSpaceOnUse">
<stop/>
<stop offset="0.99" stop-opacity="0"/>
</linearGradient>
<linearGradient id="paint2_linear_2_11" x1="25274.5" y1="38807.3" x2="23360.5" y2="38526.4" gradientUnits="userSpaceOnUse">
<stop/>
<stop offset="0.99" stop-opacity="0"/>
</linearGradient>
<linearGradient id="paint3_linear_2_11" x1="15670.6" y1="23383.3" x2="14553.2" y2="22593.5" gradientUnits="userSpaceOnUse">
<stop/>
<stop offset="0.99" stop-opacity="0"/>
</linearGradient>
<linearGradient id="paint4_linear_2_11" x1="25939.4" y1="35149" x2="28867.9" y2="35149" gradientUnits="userSpaceOnUse">
<stop/>
<stop offset="0.99" stop-opacity="0"/>
</linearGradient>
<linearGradient id="paint5_linear_2_11" x1="101552" y1="94788.2" x2="101316" y2="54215" gradientUnits="userSpaceOnUse">
<stop/>
<stop offset="0.99" stop-opacity="0"/>
</linearGradient>
<linearGradient id="paint6_linear_2_11" x1="88343.3" y1="97716.5" x2="89477.3" y2="49430.9" gradientUnits="userSpaceOnUse">
<stop/>
<stop offset="0.99" stop-opacity="0"/>
</linearGradient>
<linearGradient id="paint7_linear_2_11" x1="249.61" y1="46.6336" x2="175.502" y2="159.681" gradientUnits="userSpaceOnUse">
<stop/>
<stop offset="0.49" stop-opacity="0.51"/>
<stop offset="0.99" stop-opacity="0"/>
</linearGradient>
<linearGradient id="paint8_linear_2_11" x1="25989.3" y1="51801.1" x2="25540.2" y2="16562.6" gradientUnits="userSpaceOnUse">
<stop/>
<stop offset="0.99" stop-opacity="0"/>
</linearGradient>
<linearGradient id="paint9_linear_2_11" x1="33972.8" y1="-634.245" x2="40414.7" y2="31407.9" gradientUnits="userSpaceOnUse">
<stop/>
<stop offset="0.99" stop-opacity="0"/>
</linearGradient>
<linearGradient id="paint10_linear_2_11" x1="77.3095" y1="125.343" x2="156.764" y2="125.343" gradientUnits="userSpaceOnUse">
<stop stop-color="#A8EEFD"/>
<stop offset="1" stop-color="#E7FAFF"/>
</linearGradient>
<linearGradient id="paint11_linear_2_11" x1="106295" y1="30193.4" x2="106295" y2="46036" gradientUnits="userSpaceOnUse">
<stop/>
<stop offset="0.99" stop-opacity="0"/>
</linearGradient>
<linearGradient id="paint12_linear_2_11" x1="103072" y1="12053.5" x2="103072" y2="14311.6" gradientUnits="userSpaceOnUse">
<stop/>
<stop offset="0.99" stop-opacity="0"/>
</linearGradient>
<linearGradient id="paint13_linear_2_11" x1="26382.3" y1="25823.1" x2="26251.9" y2="1876.3" gradientUnits="userSpaceOnUse">
<stop/>
<stop offset="0.49" stop-opacity="0.51"/>
<stop offset="0.99" stop-opacity="0"/>
</linearGradient>
<linearGradient id="paint14_linear_2_11" x1="118.182" y1="75.8541" x2="117.145" y2="212.609" gradientUnits="userSpaceOnUse">
<stop/>
<stop offset="0.12" stop-opacity="0.51"/>
<stop offset="0.86" stop-opacity="0.23"/>
<stop offset="0.99" stop-opacity="0"/>
</linearGradient>
<linearGradient id="paint15_linear_2_11" x1="2527.74" y1="10935.3" x2="2768.13" y2="17533.6" gradientUnits="userSpaceOnUse">
<stop/>
<stop offset="0.99" stop-opacity="0"/>
</linearGradient>
<linearGradient id="paint16_linear_2_11" x1="18881.8" y1="12533" x2="18847.3" y2="16897.5" gradientUnits="userSpaceOnUse">
<stop/>
<stop offset="0.99" stop-opacity="0"/>
</linearGradient>
<linearGradient id="paint17_linear_2_11" x1="119.972" y1="69.0161" x2="119.37" y2="94.9217" gradientUnits="userSpaceOnUse">
<stop stop-color="#ECC4D7"/>
<stop offset="0.42" stop-color="#EFD4D1"/>
<stop offset="1" stop-color="#F2EAC9"/>
</linearGradient>
<linearGradient id="paint18_linear_2_11" x1="3297.8" y1="4798.43" x2="3646.24" y2="4798.43" gradientUnits="userSpaceOnUse">
<stop stop-color="#ECC4D7"/>
<stop offset="0.42" stop-color="#EFD4D1"/>
<stop offset="1" stop-color="#F2EAC9"/>
</linearGradient>
<linearGradient id="paint19_linear_2_11" x1="13536.5" y1="14354.8" x2="13446" y2="16617.2" gradientUnits="userSpaceOnUse">
<stop stop-color="#ECC4D7"/>
<stop offset="0.42" stop-color="#EFD4D1"/>
<stop offset="1" stop-color="#F2EAC9"/>
</linearGradient>
<linearGradient id="paint20_linear_2_11" x1="6325.33" y1="4653.49" x2="6673.52" y2="4653.49" gradientUnits="userSpaceOnUse">
<stop stop-color="#ECC4D7"/>
<stop offset="0.42" stop-color="#EFD4D1"/>
<stop offset="1" stop-color="#F2EAC9"/>
</linearGradient>
<linearGradient id="paint21_linear_2_11" x1="2328.09" y1="6055.97" x2="2606.21" y2="6055.97" gradientUnits="userSpaceOnUse">
<stop/>
<stop offset="0.99" stop-opacity="0"/>
</linearGradient>
<linearGradient id="paint22_linear_2_11" x1="4224.08" y1="8196.81" x2="5126.67" y2="8196.81" gradientUnits="userSpaceOnUse">
<stop stop-color="#ECC4D7"/>
<stop offset="0.42" stop-color="#EFD4D1"/>
<stop offset="1" stop-color="#F2EAC9"/>
</linearGradient>
<linearGradient id="paint23_linear_2_11" x1="3733.81" y1="2639.46" x2="3492.21" y2="2321.32" gradientUnits="userSpaceOnUse">
<stop/>
<stop offset="0.99" stop-opacity="0"/>
</linearGradient>
<linearGradient id="paint24_linear_2_11" x1="5719.69" y1="8112.63" x2="6622.29" y2="8112.63" gradientUnits="userSpaceOnUse">
<stop stop-color="#ECC4D7"/>
<stop offset="0.42" stop-color="#EFD4D1"/>
<stop offset="1" stop-color="#F2EAC9"/>
</linearGradient>
<linearGradient id="paint25_linear_2_11" x1="8366.07" y1="3178.98" x2="8425.48" y2="2552.48" gradientUnits="userSpaceOnUse">
<stop/>
<stop offset="0.99" stop-opacity="0"/>
</linearGradient>
<linearGradient id="paint26_linear_2_11" x1="7762.31" y1="2390.94" x2="7766.38" y2="2084.44" gradientUnits="userSpaceOnUse">
<stop/>
<stop offset="0.99" stop-opacity="0"/>
</linearGradient>
<linearGradient id="paint27_linear_2_11" x1="3494.15" y1="16417.9" x2="3643.18" y2="12130.7" gradientUnits="userSpaceOnUse">
<stop/>
<stop offset="0.99" stop-opacity="0"/>
</linearGradient>
<linearGradient id="paint28_linear_2_11" x1="3122.83" y1="15792.3" x2="3343.6" y2="11688" gradientUnits="userSpaceOnUse">
<stop/>
<stop offset="0.99" stop-opacity="0"/>
</linearGradient>
<linearGradient id="paint29_linear_2_11" x1="2271.07" y1="7347.79" x2="2540.56" y2="7347.79" gradientUnits="userSpaceOnUse">
<stop stop-color="#ECC4D7"/>
<stop offset="0.42" stop-color="#EFD4D1"/>
<stop offset="1" stop-color="#F2EAC9"/>
</linearGradient>
<linearGradient id="paint30_linear_2_11" x1="3599.77" y1="7334.55" x2="3878.56" y2="7334.55" gradientUnits="userSpaceOnUse">
<stop stop-color="#ECC4D7"/>
<stop offset="0.42" stop-color="#EFD4D1"/>
<stop offset="1" stop-color="#F2EAC9"/>
</linearGradient>
<linearGradient id="paint31_linear_2_11" x1="5066.74" y1="17159.4" x2="4103.44" y2="16789.6" gradientUnits="userSpaceOnUse">
<stop/>
<stop offset="0.99" stop-opacity="0"/>
</linearGradient>
<linearGradient id="paint32_linear_2_11" x1="7163.81" y1="17325.8" x2="8424.83" y2="17070.1" gradientUnits="userSpaceOnUse">
<stop/>
<stop offset="0.99" stop-opacity="0"/>
</linearGradient>
<linearGradient id="paint33_linear_2_11" x1="5875.61" y1="6993.38" x2="6124.53" y2="6993.38" gradientUnits="userSpaceOnUse">
<stop stop-color="#ECC4D7"/>
<stop offset="0.42" stop-color="#EFD4D1"/>
<stop offset="1" stop-color="#F2EAC9"/>
</linearGradient>
<linearGradient id="paint34_linear_2_11" x1="4510.63" y1="6775.09" x2="4759.76" y2="6775.09" gradientUnits="userSpaceOnUse">
<stop stop-color="#ECC4D7"/>
<stop offset="0.42" stop-color="#EFD4D1"/>
<stop offset="1" stop-color="#F2EAC9"/>
</linearGradient>
<linearGradient id="paint35_linear_2_11" x1="11888.3" y1="16675" x2="13069.1" y2="15949" gradientUnits="userSpaceOnUse">
<stop/>
<stop offset="0.99" stop-opacity="0"/>
</linearGradient>
<linearGradient id="paint36_linear_2_11" x1="8675.21" y1="15600.8" x2="10043.7" y2="16099" gradientUnits="userSpaceOnUse">
<stop/>
<stop offset="0.99" stop-opacity="0"/>
</linearGradient>
<linearGradient id="paint37_linear_2_11" x1="30139" y1="6940.64" x2="30330.1" y2="5909.59" gradientUnits="userSpaceOnUse">
<stop/>
<stop offset="0.99" stop-opacity="0"/>
</linearGradient>
<linearGradient id="paint38_linear_2_11" x1="16068.2" y1="7426.93" x2="13197.2" y2="9386.43" gradientUnits="userSpaceOnUse">
<stop/>
<stop offset="0.99" stop-opacity="0"/>
</linearGradient>
<linearGradient id="paint39_linear_2_11" x1="8548.31" y1="6326.53" x2="9428.32" y2="6326.53" gradientUnits="userSpaceOnUse">
<stop/>
<stop offset="0.99" stop-opacity="0"/>
</linearGradient>
<linearGradient id="paint40_linear_2_11" x1="7932.05" y1="7482.75" x2="8553.95" y2="7482.75" gradientUnits="userSpaceOnUse">
<stop stop-color="#ECC4D7"/>
<stop offset="0.42" stop-color="#EFD4D1"/>
<stop offset="1" stop-color="#F2EAC9"/>
</linearGradient>
<linearGradient id="paint41_linear_2_11" x1="2636.94" y1="6101.93" x2="2713.91" y2="6101.93" gradientUnits="userSpaceOnUse">
<stop stop-color="#ECC4D7"/>
<stop offset="0.42" stop-color="#EFD4D1"/>
<stop offset="1" stop-color="#F2EAC9"/>
</linearGradient>
<linearGradient id="paint42_linear_2_11" x1="1554.36" y1="1090.33" x2="1537.04" y2="943.283" gradientUnits="userSpaceOnUse">
<stop/>
<stop offset="0.99" stop-opacity="0"/>
</linearGradient>
<linearGradient id="paint43_linear_2_11" x1="1402.54" y1="278.415" x2="1402.32" y2="269.575" gradientUnits="userSpaceOnUse">
<stop/>
<stop offset="0.99" stop-opacity="0"/>
</linearGradient>
<linearGradient id="paint44_linear_2_11" x1="4661.75" y1="6056.73" x2="4906.74" y2="6056.73" gradientUnits="userSpaceOnUse">
<stop stop-color="#ECC4D7"/>
<stop offset="0.42" stop-color="#EFD4D1"/>
<stop offset="1" stop-color="#F2EAC9"/>
</linearGradient>
<linearGradient id="paint45_linear_2_11" x1="892.443" y1="788.027" x2="908.499" y2="786.31" gradientUnits="userSpaceOnUse">
<stop/>
<stop offset="0.99" stop-opacity="0"/>
</linearGradient>
<linearGradient id="paint46_linear_2_11" x1="898.664" y1="774.934" x2="914.747" y2="773.211" gradientUnits="userSpaceOnUse">
<stop/>
<stop offset="0.99" stop-opacity="0"/>
</linearGradient>
<linearGradient id="paint47_linear_2_11" x1="910.351" y1="777.935" x2="926.408" y2="776.212" gradientUnits="userSpaceOnUse">
<stop/>
<stop offset="0.99" stop-opacity="0"/>
</linearGradient>
<linearGradient id="paint48_linear_2_11" x1="909.387" y1="789.487" x2="925.496" y2="787.758" gradientUnits="userSpaceOnUse">
<stop/>
<stop offset="0.99" stop-opacity="0"/>
</linearGradient>
</defs>
</svg>
