<svg width="24" height="24" viewBox="0 0 24 24" fill="none" xmlns="http://www.w3.org/2000/svg">
<path d="M21.3 10.08C21.019 9.74263 20.6674 9.47107 20.27 9.28445C19.8726 9.09784 19.439 9.00073 19 8.99998H14.44L15 7.56998C15.2329 6.94387 15.3105 6.27059 15.2261 5.6079C15.1416 4.94522 14.8977 4.31291 14.5152 3.76521C14.1327 3.21752 13.623 2.77078 13.0299 2.46333C12.4369 2.15587 11.778 1.99688 11.11 1.99998C10.9176 2.00038 10.7295 2.05626 10.5681 2.16091C10.4067 2.26555 10.2789 2.41453 10.2 2.58998L7.35 8.99998H5C4.20435 8.99998 3.44129 9.31605 2.87868 9.87866C2.31607 10.4413 2 11.2043 2 12V19C2 19.7956 2.31607 20.5587 2.87868 21.1213C3.44129 21.6839 4.20435 22 5 22H17.73C18.4318 21.9997 19.1113 21.7535 19.6503 21.304C20.1893 20.8545 20.5537 20.2303 20.68 19.54L21.95 12.54C22.0286 12.1074 22.011 11.6628 21.8987 11.2377C21.7864 10.8126 21.582 10.4173 21.3 10.08ZM7 20H5C4.73478 20 4.48043 19.8946 4.29289 19.7071C4.10536 19.5196 4 19.2652 4 19V12C4 11.7348 4.10536 11.4804 4.29289 11.2929C4.48043 11.1053 4.73478 11 5 11H7V20ZM20 12.18L18.73 19.18C18.6874 19.4129 18.5635 19.6232 18.3804 19.7734C18.1973 19.9235 17.9668 20.0038 17.73 20H9V10.21L11.72 4.08998C12 4.17161 12.26 4.31039 12.4837 4.49757C12.7073 4.68474 12.8897 4.91625 13.0194 5.17748C13.1491 5.4387 13.2232 5.72397 13.2371 6.01528C13.2509 6.30659 13.2043 6.59762 13.1 6.86998L12.57 8.29998C12.4571 8.60224 12.4189 8.92733 12.4589 9.24751C12.4988 9.5677 12.6156 9.87347 12.7993 10.1387C12.983 10.404 13.2282 10.6208 13.5139 10.7708C13.7996 10.9208 14.1173 10.9994 14.44 11H19C19.1469 10.9997 19.2921 11.0319 19.4252 11.0941C19.5582 11.1563 19.676 11.2471 19.77 11.36C19.8663 11.4713 19.9369 11.6025 19.9767 11.7443C20.0164 11.886 20.0244 12.0348 20 12.18Z" fill="#BFBFBF"/>
</svg>
